
<svg xmlns="http://www.w3.org/2000/svg" width="615" height="615">
<path style={{"fill:#ffffff; stroke:none"}} d="M0 0L0 615L615 615L615 0L0 0z"/>
<path style={{"fill:#010101; stroke:none"}} d="M60 60L60 165L165 165L165 60L60 60M180 60L180 105L195 105L195 120L225 120L225 105L195 105L195 75L225 75L225 90L240 90L240 135L225 135L225 150L210 150L210 135L180 135L180 195L165 195L165 180L150 180L150 195L165 195L165 210L120 210L120 195L135 195L135 180L90 180L90 195L75 195L75 210L60 210L60 225L75 225L75 210L90 210L90 225L120 225L120 240L90 240L90 255L75 255L75 240L60 240L60 255L75 255L75 270L60 270L60 315L75 315L75 300L90 300L90 285L105 285L105 300L120 300L120 285L105 285L105 270L90 270L90 255L120 255L120 240L150 240L150 255L135 255L135 270L150 270L150 285L135 285L135 315L105 315L105 360L90 360L90 330L60 330L60 435L75 435L75 375L90 375L90 405L105 405L105 435L120 435L120 420L135 420L135 405L165 405L165 420L150 420L150 435L165 435L165 420L180 420L180 450L195 450L195 465L210 465L210 480L240 480L240 510L225 510L225 495L195 495L195 480L180 480L180 525L195 525L195 555L210 555L210 540L270 540L270 555L300 555L300 540L315 540L315 555L330 555L330 540L360 540L360 555L375 555L375 525L405 525L405 510L420 510L420 525L435 525L435 540L405 540L405 555L435 555L435 540L450 540L450 555L465 555L465 540L480 540L480 525L465 525L465 510L450 510L450 495L480 495L480 510L495 510L495 480L525 480L525 495L510 495L510 540L525 540L525 555L540 555L540 540L525 540L525 495L540 495L540 510L555 510L555 465L540 465L540 450L555 450L555 405L510 405L510 360L540 360L540 330L555 330L555 315L525 315L525 330L510 330L510 345L495 345L495 360L465 360L465 375L450 375L450 360L435 360L435 345L390 345L390 330L360 330L360 315L345 315L345 300L405 300L405 330L435 330L435 315L450 315L450 345L465 345L465 315L450 315L450 300L465 300L465 285L450 285L450 300L435 300L435 315L420 315L420 285L405 285L405 270L420 270L420 255L450 255L450 270L465 270L465 255L510 255L510 285L495 285L495 270L480 270L480 315L510 315L510 300L540 300L540 270L555 270L555 255L540 255L540 270L525 270L525 255L510 255L510 240L525 240L525 225L540 225L540 210L555 210L555 180L510 180L510 195L495 195L495 210L510 210L510 195L540 195L540 210L525 210L525 225L495 225L495 240L465 240L465 255L450 255L450 225L480 225L480 210L465 210L465 195L480 195L480 180L405 180L405 210L390 210L390 195L375 195L375 210L360 210L360 195L345 195L345 150L360 150L360 180L390 180L390 165L405 165L405 135L420 135L420 120L435 120L435 60L405 60L405 75L375 75L375 90L360 90L360 60L330 60L330 75L285 75L285 60L240 60L240 75L225 75L225 60L180 60M450 60L450 165L555 165L555 60L450 60z"/>
<path style={{"fill:#ffffff; stroke:none"}} d="M75 75L75 150L150 150L150 75L75 75M240 75L240 90L255 90L255 135L240 135L240 150L225 150L225 165L210 165L210 150L195 150L195 180L210 180L210 210L165 210L165 225L150 225L150 240L165 240L165 255L150 255L150 270L165 270L165 285L150 285L150 300L165 300L165 315L150 315L150 330L165 330L165 345L135 345L135 330L120 330L120 360L165 360L165 375L120 375L120 405L135 405L135 390L165 390L165 405L180 405L180 420L195 420L195 405L210 405L210 435L195 435L195 450L210 450L210 435L225 435L225 465L240 465L240 480L255 480L255 510L240 510L240 525L270 525L270 495L300 495L300 510L285 510L285 540L300 540L300 525L330 525L330 495L345 495L345 480L330 480L330 465L345 465L345 420L360 420L360 405L390 405L390 420L375 420L375 435L360 435L360 450L375 450L375 465L360 465L360 480L405 480L405 495L390 495L390 510L405 510L405 495L420 495L420 510L435 510L435 495L420 495L420 480L405 480L405 465L390 465L390 450L420 450L420 435L390 435L390 420L405 420L405 405L420 405L420 420L465 420L465 390L495 390L495 375L465 375L465 390L450 390L450 375L420 375L420 360L405 360L405 375L390 375L390 360L375 360L375 390L360 390L360 375L330 375L330 405L315 405L315 450L300 450L300 390L315 390L315 375L300 375L300 390L285 390L285 435L270 435L270 420L255 420L255 405L270 405L270 375L285 375L285 360L345 360L345 345L360 345L360 330L300 330L300 315L285 315L285 330L300 330L300 345L255 345L255 360L240 360L240 330L255 330L255 300L270 300L270 285L255 285L255 300L240 300L240 315L210 315L210 300L165 300L165 285L195 285L195 255L210 255L210 285L240 285L240 270L270 270L270 255L255 255L255 225L240 225L240 195L255 195L255 210L270 210L270 240L285 240L285 255L300 255L300 285L330 285L330 255L300 255L300 225L315 225L315 240L345 240L345 255L360 255L360 285L390 285L390 270L405 270L405 255L420 255L420 240L435 240L435 225L450 225L450 210L435 210L435 195L420 195L420 210L405 210L405 240L390 240L390 255L360 255L360 240L375 240L375 225L360 225L360 240L345 240L345 195L330 195L330 150L315 150L315 135L300 135L300 150L285 150L285 165L300 165L300 150L315 150L315 195L330 195L330 210L300 210L300 225L285 225L285 195L255 195L255 180L270 180L270 150L255 150L255 135L270 135L270 90L255 90L255 75L240 75M330 75L330 90L345 90L345 105L360 105L360 120L330 120L330 135L360 135L360 150L375 150L375 165L390 165L390 150L375 150L375 135L405 135L405 120L390 120L390 105L405 105L405 90L420 90L420 75L405 75L405 90L390 90L390 105L360 105L360 90L345 90L345 75L330 75M465 75L465 150L540 150L540 75L465 75z"/>
<path style={{"fill:#010101; stroke:none"}} d="M90 90L90 135L135 135L135 90L90 90z"/>
<path style={{"fill:#ffffff; stroke:none"}} d="M285 90L285 120L315 120L315 90L285 90z"/>
<path style={{"fill:#010101; stroke:none"}} d="M480 90L480 135L525 135L525 90L480 90M240 150L240 180L225 180L225 195L240 195L240 180L255 180L255 150L240 150M420 150L420 165L435 165L435 150L420 150z"/>
<path style={{"fill:#ffffff; stroke:none"}} d="M90 195L90 210L105 210L105 195L90 195z"/>
<path style={{"fill:#010101; stroke:none"}} d="M165 225L165 240L180 240L180 225L165 225M195 225L195 240L210 240L210 225L195 225M225 240L225 270L240 270L240 240L225 240z"/>
<path style={{"fill:#ffffff; stroke:none"}} d="M75 270L75 285L90 285L90 270L75 270M315 300L315 315L330 315L330 300L315 300z"/>
<path style={{"fill:#010101; stroke:none"}} d="M165 315L165 330L180 330L180 345L165 345L165 360L180 360L180 345L195 345L195 360L210 360L210 390L225 390L225 405L240 405L240 390L255 390L255 375L240 375L240 360L225 360L225 345L210 345L210 330L195 330L195 315L165 315M405 375L405 390L390 390L390 405L405 405L405 390L420 390L420 375L405 375M540 375L540 390L555 390L555 375L540 375M330 405L330 420L345 420L345 405L330 405z"/>
<path style={{"fill:#ffffff; stroke:none"}} d="M480 405L480 420L495 420L495 405L480 405M510 420L510 435L525 435L525 420L510 420z"/>
<path style={{"fill:#010101; stroke:none"}} d="M240 435L240 450L255 450L255 465L270 465L270 450L255 450L255 435L240 435z"/>
<path style={{"fill:#ffffff; stroke:none"}} d="M435 435L435 480L480 480L480 435L435 435z"/>
<path style={{"fill:#010101; stroke:none"}} d="M60 450L60 555L165 555L165 450L60 450M285 450L285 465L300 465L300 495L330 495L330 480L315 480L315 465L300 465L300 450L285 450M450 450L450 465L465 465L465 450L450 450z"/>
<path style={{"fill:#ffffff; stroke:none"}} d="M495 450L495 465L525 465L525 450L495 450M75 465L75 540L150 540L150 465L75 465z"/>
<path style={{"fill:#010101; stroke:none"}} d="M90 480L90 525L135 525L135 480L90 480z"/>
<path style={{"fill:#ffffff; stroke:none"}} d="M345 510L345 525L375 525L375 510L345 510M450 525L450 540L465 540L465 525L450 525z"/>
</svg>
